<svg xmlns="http://www.w3.org/2000/svg" width="18" height="18" viewBox="0 0 18 18">
  <path d="M9.74641 1.7822L11.1381 4.301C11.3288 4.64674 11.8119 4.97267 12.2111 5.01395L14.5869 5.29024C16.1081 5.46388 16.4918 6.53095 15.4461 7.66068L13.6645 9.57462C13.3671 9.89536 13.209 10.5039 13.3239 10.9196L13.9238 13.1505C14.3955 14.9118 13.464 15.6513 11.8451 14.7977L9.58366 13.605C9.17179 13.387 8.51437 13.4247 8.1236 13.6766L5.94945 15.0808C4.39306 16.0846 3.41346 15.4405 3.76825 13.6403L4.22233 11.3619C4.30711 10.936 4.11739 10.3443 3.79847 10.055L1.8955 8.32231C0.778843 7.30148 1.09076 6.20097 2.59291 5.8772L4.93839 5.37333C5.33426 5.28504 5.79519 4.92248 5.95903 4.55614L7.1808 1.90471C7.83795 0.473386 8.99508 0.418949 9.74641 1.7822Z" />
</svg>